<?xml version="1.0" standalone="no"?>
<!DOCTYPE svg PUBLIC "-//W3C//DTD SVG 20010904//EN"
 "http://www.w3.org/TR/2001/REC-SVG-20010904/DTD/svg10.dtd">
<svg version="1.0" xmlns="http://www.w3.org/2000/svg"
 width="500.000000pt" height="500.000000pt" viewBox="0 0 500.000000 500.000000"
 preserveAspectRatio="xMidYMid meet">
<metadata>
Created by potrace 1.14, written by Peter Selinger 2001-2017
</metadata>
<g transform="translate(0.000000,500.000000) scale(0.100000,-0.100000)"
fill="#000000" stroke="none">
<path d="M2374 4005 c-155 -77 -307 -230 -379 -379 -59 -123 -86 -265 -57
-299 15 -16 14 -17 -1 -11 -10 3 -17 1 -17 -5 0 -10 14 -15 33 -12 5 1 6 -2 3
-7 -3 -5 13 -17 35 -27 28 -13 36 -21 27 -27 -9 -5 -5 -8 11 -8 13 0 22 -3 18
-6 -3 -4 -18 -3 -34 0 -19 5 -23 10 -14 15 9 6 6 10 -12 15 -14 3 -33 9 -44
12 -13 4 -11 0 7 -15 25 -20 25 -21 3 -21 -20 0 -21 -4 -17 -50 2 -27 8 -60
13 -72 8 -21 10 -22 16 -4 5 11 3 21 -6 27 -22 13 5 33 36 25 24 -6 27 -26 4
-26 -6 0 -7 5 -4 10 3 6 -4 10 -16 10 -22 0 -22 0 5 -29 16 -16 23 -31 18 -35
-6 -3 -12 2 -14 11 -3 14 -8 11 -21 -14 -10 -18 -13 -33 -8 -33 5 0 11 -6 14
-14 4 -9 -22 -32 -74 -66 -140 -91 -245 -210 -283 -323 -20 -59 -21 -156 -2
-202 19 -45 13 -44 -19 2 -30 45 -34 34 -4 -13 39 -64 209 -157 355 -194 105
-27 293 -28 384 -2 96 28 148 53 154 77 5 17 8 18 16 5 7 -11 10 4 10 50 0 36
7 76 15 90 13 23 13 20 10 -42 -3 -38 0 -70 5 -73 10 -6 15 26 12 73 0 14 3
20 10 16 8 -5 9 -1 4 12 -4 10 -4 15 1 11 4 -5 9 -27 10 -50 2 -30 0 -38 -7
-27 -8 13 -10 12 -10 -2 0 -10 2 -18 5 -18 20 0 117 79 110 90 -12 20 50 0
130 -41 50 -26 101 -50 115 -53 14 -4 -20 15 -75 42 -122 61 -138 72 -125 92
8 12 20 9 77 -22 72 -38 209 -88 240 -87 10 0 -13 9 -51 20 -71 20 -197 76
-228 100 -11 9 -15 19 -9 27 7 11 16 10 51 -8 23 -12 44 -19 46 -17 3 2 -9 10
-25 17 -38 15 -57 38 -45 50 6 6 35 -1 79 -20 39 -16 77 -29 85 -29 8 0 -20
14 -63 30 -59 23 -77 35 -74 47 3 18 6 18 47 9 22 -6 22 -5 -3 5 -34 15 -32
44 3 40 22 -2 23 -1 7 10 -29 23 -7 39 37 27 21 -6 40 -8 43 -6 2 3 -11 8 -29
12 -44 10 -48 13 -41 31 4 10 15 13 42 9 l36 -5 -32 10 c-36 12 -36 39 1 41
17 1 18 2 3 6 -35 9 -10 28 44 34 l54 6 -47 1 c-41 2 -48 5 -48 22 0 12 7 20
18 20 14 0 14 2 3 9 -8 5 -11 16 -8 25 3 8 2 18 -3 21 -6 4 -10 14 -9 23 0 14
2 13 9 -3 7 -16 9 -17 9 -3 1 12 12 18 44 21 l42 4 -42 1 c-35 2 -43 6 -43 21
0 16 8 21 43 24 l42 4 -42 1 c-44 2 -61 26 -25 35 13 4 11 5 -5 6 -16 1 -23 7
-23 20 0 18 3 19 30 10 16 -6 27 -15 24 -20 -3 -5 7 -9 21 -9 15 0 36 -5 48
-12 l22 -12 -25 -8 c-21 -6 -19 -7 10 -4 26 3 47 -4 83 -27 51 -33 57 -43 30
-50 -10 -2 1 -3 24 -2 22 0 47 6 55 13 12 9 15 9 15 -3 0 -23 -27 -42 -82 -58
-27 -9 -43 -16 -34 -16 9 -1 41 8 72 18 32 11 57 19 58 18 7 -19 5 -43 -4 -50
-8 -6 -5 -7 7 -3 10 4 26 1 34 -6 13 -11 14 -11 8 0 -9 14 12 45 25 37 17 -11
-28 -65 -71 -84 -25 -11 -39 -20 -32 -21 7 0 31 9 54 21 46 24 81 32 73 18 -4
-5 -11 -6 -17 -3 -6 4 -8 -1 -4 -13 4 -14 -2 -23 -25 -37 -17 -10 -28 -20 -25
-23 6 -7 65 33 90 61 18 21 18 21 2 -7 -9 -15 -14 -31 -11 -36 3 -5 -11 -23
-30 -40 -36 -31 -115 -60 -169 -62 -21 -1 -25 -3 -11 -6 35 -9 124 18 174 52
33 23 51 30 54 22 8 -21 -13 -47 -61 -78 -25 -16 -42 -29 -38 -29 15 0 52 23
84 53 32 31 32 31 32 7 0 -37 -70 -96 -143 -119 -34 -11 -54 -20 -45 -20 36
-2 123 40 160 76 40 39 49 32 23 -17 -19 -36 -69 -75 -121 -94 -21 -8 -33 -15
-25 -15 29 -2 100 41 135 80 41 44 47 33 13 -23 -28 -46 -65 -75 -125 -99 -26
-10 -40 -18 -31 -19 30 0 119 52 149 88 35 43 38 37 10 -18 -25 -48 -76 -88
-143 -111 -29 -10 -43 -18 -32 -18 34 -1 108 38 148 77 44 43 48 31 8 -24 -35
-49 -70 -73 -141 -95 -30 -10 -48 -18 -39 -18 85 -3 233 120 212 175 -4 11 -3
15 5 10 34 -21 21 241 -19 369 -28 93 -79 194 -134 265 -48 63 -132 140 -152
140 -7 0 -13 5 -13 11 0 7 -10 9 -27 4 -23 -5 -25 -4 -14 9 20 24 4 19 -56
-14 -29 -17 -53 -27 -53 -24 0 4 -7 0 -17 -7 -15 -13 -15 -12 -4 9 10 19 22
26 42 24 3 0 18 10 35 24 l29 25 -32 -16 c-23 -11 -33 -12 -33 -4 0 7 -8 5
-20 -6 -14 -13 -20 -14 -20 -5 0 9 -5 7 -15 -6 -8 -10 -15 -14 -15 -8 0 6 7
17 15 24 8 7 15 9 15 5 0 -4 6 -2 14 4 8 6 19 10 26 9 7 -2 15 3 18 11 3 10 0
12 -13 7 -11 -4 -22 -1 -27 6 -6 10 -8 8 -8 -4 0 -10 -5 -18 -11 -18 -6 0 -9
9 -6 20 4 16 -2 22 -31 30 -21 5 -43 10 -49 10 -9 0 -14 27 -15 98 l-2 97 -3
-92 c-3 -85 -6 -93 -23 -93 -18 0 -20 8 -22 73 l-2 72 -3 -67 c-3 -60 -6 -68
-23 -68 -17 0 -20 7 -21 53 0 28 -4 70 -8 92 -6 27 -7 9 -3 -52 4 -81 3 -93
-11 -93 -10 0 -18 12 -21 33 -13 75 -14 79 -13 27 2 -44 -1 -55 -15 -58 -11
-2 -18 5 -21 20 l-4 23 -2 -23 c-1 -32 -33 -25 -42 8 l-7 25 -1 -27 c-2 -45
-28 -33 -45 20 -14 41 -13 15 0 -30 4 -13 0 -18 -14 -18 -14 0 -22 12 -31 43
-42 144 -149 295 -243 343 -26 13 -48 30 -47 37 0 9 2 9 6 -1 4 -10 8 -10 17
3 10 14 17 13 64 -11 67 -33 133 -108 183 -209 22 -44 37 -69 34 -55 -27 98
-144 245 -220 277 -50 20 -59 43 -18 43 79 0 178 -91 244 -224 22 -45 37 -70
34 -56 -15 54 -78 160 -122 204 -47 46 -114 86 -147 86 -37 0 -3 20 37 22 37
1 38 2 10 5 -37 5 -43 18 -13 28 11 3 20 11 20 16 0 5 5 9 11 9 6 0 17 7 25
15 9 9 36 16 67 16 50 2 50 2 17 10 -26 6 -16 7 42 6 42 -1 71 1 65 5 -7 4
-40 8 -73 8 -50 0 -74 -6 -130 -35z m-152 -204 c11 32 111 -38 172 -121 41
-55 96 -170 111 -232 6 -24 4 -28 -14 -28 -12 0 -21 6 -21 14 0 8 -21 56 -47
107 -35 71 -63 111 -114 162 -37 37 -74 67 -82 67 -9 0 -19 10 -22 21 -6 17
-9 19 -16 8 -5 -8 -9 -9 -9 -3 0 20 14 25 26 9 8 -11 13 -12 16 -4z m-38 -47
c3 -8 2 -12 -4 -9 -6 3 -10 10 -10 16 0 14 7 11 14 -7z m84 -24 c22 -16 59
-53 81 -82 43 -58 111 -192 111 -220 0 -40 -28 -13 -70 69 -32 64 -64 108
-117 162 -70 71 -88 101 -60 101 8 0 32 -13 55 -30z m-158 -15 c0 -8 -2 -15
-4 -15 -2 0 -6 7 -10 15 -3 8 -1 15 4 15 6 0 10 -7 10 -15z m17 -7 c-3 -8 -6
-5 -6 6 -1 11 2 17 5 13 3 -3 4 -12 1 -19z m33 -11 c0 -5 -4 -5 -10 -2 -5 3
-10 14 -10 23 0 15 2 15 10 2 5 -8 10 -19 10 -23z m30 4 c11 16 64 -23 113
-83 45 -55 120 -195 112 -208 -12 -20 -23 -9 -66 63 -23 39 -73 104 -111 143
-37 39 -68 77 -67 85 0 11 2 11 6 0 4 -11 7 -11 13 0z m-123 -33 c-3 -8 -6 -5
-6 6 -1 11 2 17 5 13 3 -3 4 -12 1 -19z m20 0 c-3 -8 -6 -5 -6 6 -1 11 2 17 5
13 3 -3 4 -12 1 -19z m32 -11 c0 -21 -1 -21 -9 -2 -12 28 -12 37 0 30 6 -3 10
-16 9 -28z m18 -9 c-3 -7 -5 -2 -5 12 0 14 2 19 5 13 2 -7 2 -19 0 -25z m44
-7 c19 28 141 -121 183 -222 15 -35 15 -37 -4 -32 -10 3 -36 33 -58 67 -21 33
-62 86 -90 117 -29 31 -51 65 -51 75 1 18 2 18 6 0 4 -15 7 -16 14 -5z m-134
-23 c-3 -7 -5 -2 -5 12 0 14 2 19 5 13 2 -7 2 -19 0 -25z m20 0 c-3 -7 -5 -2
-5 12 0 14 2 19 5 13 2 -7 2 -19 0 -25z m20 -10 c-3 -7 -5 -2 -5 12 0 14 2 19
5 13 2 -7 2 -19 0 -25z m30 -10 c-3 -7 -5 -2 -5 12 0 14 2 19 5 13 2 -7 2 -19
0 -25z m-90 -20 c-3 -8 -6 -5 -6 6 -1 11 2 17 5 13 3 -3 4 -12 1 -19z m20 -10
c-3 -7 -5 -2 -5 12 0 14 2 19 5 13 2 -7 2 -19 0 -25z m100 10 c-3 -8 -6 -5 -6
6 -1 11 2 17 5 13 3 -3 4 -12 1 -19z m-80 -20 c-3 -7 -5 -2 -5 12 0 14 2 19 5
13 2 -7 2 -19 0 -25z m224 -105 c23 -34 38 -66 35 -72 -3 -5 -1 -11 6 -13 7
-3 5 -7 -6 -11 -10 -4 -15 -3 -11 3 3 6 2 10 -2 10 -5 0 -30 28 -55 63 -25 34
-55 71 -67 81 -13 11 -21 31 -21 50 l0 30 40 -39 c23 -22 59 -68 81 -102z
m-204 95 c-3 -7 -5 -2 -5 12 0 14 2 19 5 13 2 -7 2 -19 0 -25z m24 -15 c-12
-20 -14 -14 -5 12 4 9 9 14 11 11 3 -2 0 -13 -6 -23z m-101 2 c2 19 3 19 7 1
4 -15 7 -16 15 -5 8 12 9 11 5 -1 -6 -23 -41 -19 -44 5 l-3 20 9 -20 10 -20 1
20z m40 -32 c-11 -17 -11 -17 -6 0 3 10 6 24 7 30 0 9 2 9 5 0 3 -7 0 -20 -6
-30z m22 -5 c-8 -8 -9 -4 -5 13 4 13 8 18 11 10 2 -7 -1 -18 -6 -23z m164 -53
c45 -60 54 -78 45 -88 -14 -13 -47 19 -98 95 -22 32 -26 68 -9 68 3 0 31 -34
62 -75z m-140 39 c-4 -9 -9 -15 -11 -12 -3 3 -3 13 1 22 4 9 9 15 11 12 3 -3
3 -13 -1 -22z m-120 -21 c-3 -4 -6 -1 -6 6 0 7 -4 9 -10 6 -6 -4 -7 1 -3 11 6
15 7 15 15 -1 6 -9 7 -19 4 -22z m42 14 c4 -14 7 -16 13 -5 7 10 9 11 9 0 0
-7 4 -10 10 -7 6 3 7 -1 3 -10 -5 -13 -7 -14 -14 -3 -7 10 -9 10 -10 -2 0 -8
-7 -1 -14 15 -11 23 -14 26 -15 10 0 -17 -2 -17 -10 -5 -14 21 -12 27 6 27 9
0 19 -9 22 -20z m-38 -37 c1 12 3 11 11 -3 6 -9 14 -15 19 -12 5 3 12 0 16 -6
5 -8 3 -9 -6 -4 -10 6 -12 3 -7 -11 5 -14 2 -12 -13 6 -13 17 -20 20 -20 10 0
-13 -1 -13 -10 0 -5 8 -10 20 -10 25 0 6 5 3 10 -5 9 -13 10 -13 10 0z m245
-60 c16 -22 25 -43 22 -47 -4 -3 1 -11 10 -18 13 -9 13 -14 3 -20 -9 -5 -11
-4 -6 3 4 7 2 12 -4 12 -22 0 -80 74 -80 104 0 34 13 26 55 -34z m-259 4 c-6
16 -4 17 9 6 8 -7 15 -9 15 -4 0 4 15 -7 33 -24 18 -18 37 -29 42 -25 5 5 4 1
-3 -8 -9 -12 -9 -19 1 -29 10 -12 9 -12 -5 -1 -10 7 -16 17 -13 21 2 4 -7 18
-20 30 -14 13 -25 19 -25 13 0 -6 7 -16 15 -23 9 -7 13 -15 10 -18 -3 -3 0
-11 6 -19 6 -7 8 -13 3 -13 -4 0 0 -6 11 -13 14 -11 15 -16 5 -22 -9 -6 -11
-4 -5 5 6 10 4 12 -9 7 -10 -4 -15 -3 -11 3 3 5 -7 16 -22 24 -15 8 -39 26
-53 41 l-25 28 25 -14 c14 -7 30 -13 35 -14 6 0 10 -6 10 -14 0 -8 5 -16 12
-18 6 -2 10 2 9 10 -2 19 -27 49 -34 43 -9 -10 -42 15 -42 31 0 14 2 14 16 -3
15 -18 15 -18 10 0z m94 10 c0 -8 -19 -13 -24 -6 -3 5 1 9 9 9 8 0 15 -2 15
-3z m411 -9 c0 -5 -5 -11 -13 -13 -10 -3 -10 -1 1 6 11 8 10 11 -5 15 -16 5
-16 6 -1 4 10 -1 18 -6 18 -12z m39 5 c-10 -6 -11 -10 -2 -10 6 0 12 -4 12
-10 0 -5 -6 -10 -14 -10 -12 0 -14 14 -7 38 1 1 7 2 14 2 8 0 7 -4 -3 -10z
m87 4 c-3 -3 -12 -4 -19 -1 -8 3 -5 6 6 6 11 1 17 -2 13 -5z m-167 -8 c0 -2
-7 -7 -16 -10 -8 -3 -12 -2 -9 4 6 10 25 14 25 6z m125 -6 c-3 -5 -11 -10 -16
-10 -6 0 -7 5 -4 10 3 6 11 10 16 10 6 0 7 -4 4 -10z m95 6 c0 -2 -7 -6 -15
-10 -8 -3 -15 -1 -15 4 0 6 7 10 15 10 8 0 15 -2 15 -4z m-271 -26 c-8 -6 -6
-9 7 -12 16 -3 17 -4 3 -10 -11 -4 -20 1 -27 17 -9 20 -8 22 10 17 14 -3 16
-7 7 -12z m226 10 c-3 -5 -10 -10 -16 -10 -5 0 -9 5 -9 10 0 6 7 10 16 10 8 0
12 -4 9 -10z m304 0 c-30 -16 -59 -21 -59 -10 0 6 5 8 10 5 6 -3 10 -2 10 3 0
5 12 10 27 10 17 0 21 -3 12 -8z m-472 -12 c0 -7 4 -21 8 -30 5 -14 2 -18 -11
-18 -16 0 -17 2 -4 11 12 8 11 9 -5 6 -20 -3 -22 -9 -10 -39 5 -13 2 -18 -11
-18 -16 0 -17 2 -4 10 11 7 11 10 2 10 -7 0 -11 4 -8 9 4 5 0 11 -6 13 -8 3 0
12 17 21 17 9 24 16 17 17 -7 0 -10 5 -7 10 9 14 22 12 22 -2z m133 2 c0 -5
-7 -10 -16 -10 -8 0 -12 5 -9 10 3 6 10 10 16 10 5 0 9 -4 9 -10z m78 -35 c1
-27 -2 -45 -9 -45 -6 0 -9 6 -6 13 2 6 1 24 -4 39 -7 25 -3 38 11 38 4 0 8
-20 8 -45z m39 39 c-3 -3 -12 -4 -19 -1 -8 3 -5 6 6 6 11 1 17 -2 13 -5z
m-479 -61 c-15 -19 -28 -6 -28 29 l0 30 19 -23 c14 -17 16 -28 9 -36z m267 47
c-3 -5 -11 -10 -16 -10 -6 0 -7 5 -4 10 3 6 11 10 16 10 6 0 7 -4 4 -10z m138
-42 c-8 -14 -25 -8 -20 6 3 8 1 17 -6 20 -9 3 -8 7 3 15 12 8 16 6 21 -12 3
-12 4 -25 2 -29z m122 42 c-3 -5 -12 -10 -18 -10 -7 0 -6 4 3 10 19 12 23 12
15 0z m88 -7 c-3 -7 -9 -10 -14 -7 -14 8 -11 21 5 21 8 0 12 -6 9 -14z m107 8
c0 -6 -4 -13 -10 -16 -5 -3 -10 1 -10 9 0 9 5 16 10 16 6 0 10 -4 10 -9z
m-634 -10 c-4 -5 -1 -11 6 -13 7 -3 5 -7 -6 -11 -10 -4 -15 -3 -11 3 3 6 0 10
-7 10 -9 0 -9 3 2 10 19 12 23 12 16 1z m44 -1 c-12 -8 -12 -10 5 -10 17 0 17
-2 5 -10 -11 -7 -11 -10 -2 -10 7 0 11 -4 8 -9 -4 -5 0 -12 6 -14 10 -4 10 -6
1 -6 -14 -1 -45 53 -36 63 4 3 11 6 17 6 6 0 4 -5 -4 -10z m185 0 c-3 -5 -10
-10 -16 -10 -5 0 -9 5 -9 10 0 6 7 10 16 10 8 0 12 -4 9 -10z m175 1 c0 -10
-30 -24 -37 -17 -3 3 -2 9 2 15 8 13 35 15 35 2z m200 -6 c0 -8 -4 -15 -10
-15 -5 0 -10 7 -10 15 0 8 5 15 10 15 6 0 10 -7 10 -15z m-410 -5 c0 -5 -7
-10 -16 -10 -8 0 -12 5 -9 10 3 6 10 10 16 10 5 0 9 -4 9 -10z m80 0 c0 -5 -3
-10 -7 -10 -5 0 -19 -3 -32 -7 -17 -4 -22 -3 -17 6 4 6 11 9 16 6 5 -3 11 -1
15 5 8 13 25 13 25 0z m206 -2 c4 -7 3 -8 -4 -4 -7 4 -12 2 -12 -3 0 -6 5 -11
10 -11 6 0 10 -7 10 -15 0 -8 -4 -15 -9 -15 -5 0 -7 -8 -4 -19 3 -11 -2 -21
-12 -25 -14 -5 -15 -1 -10 27 3 17 7 41 9 52 5 30 10 33 22 13z m91 -10 c-3
-8 -6 -5 -6 6 -1 11 2 17 5 13 3 -3 4 -12 1 -19z m-129 0 c-6 -18 -28 -21 -28
-4 0 9 7 16 16 16 9 0 14 -5 12 -12z m-40 -10 c-3 -7 -13 -15 -24 -17 -16 -3
-17 -1 -5 13 16 19 34 21 29 4z m-378 -2 c0 -2 -7 -7 -16 -10 -8 -3 -12 -2 -9
4 6 10 25 14 25 6z m180 0 c0 -2 -7 -6 -15 -10 -8 -3 -15 -1 -15 4 0 6 7 10
15 10 8 0 15 -2 15 -4z m75 -6 c-3 -5 -10 -10 -16 -10 -5 0 -9 5 -9 10 0 6 7
10 16 10 8 0 12 -4 9 -10z m312 -12 c-3 -8 -6 -5 -6 6 -1 11 2 17 5 13 3 -3 4
-12 1 -19z m20 0 c-3 -8 -6 -5 -6 6 -1 11 2 17 5 13 3 -3 4 -12 1 -19z m-450
-8 c1 -11 -3 -20 -8 -20 -6 0 -7 5 -4 10 3 6 1 10 -5 10 -6 0 -8 5 -5 10 10
16 21 11 22 -10z m83 10 c0 -5 -7 -10 -15 -10 -8 0 -15 5 -15 10 0 6 7 10 15
10 8 0 15 -4 15 -10z m187 -17 c-9 -9 -20 -13 -24 -9 -4 4 1 14 11 22 25 18
35 8 13 -13z m-391 -5 c1 -12 -3 -15 -14 -10 -12 4 -13 7 -3 10 11 4 11 6 0
14 -12 8 -12 9 0 6 8 -2 15 -11 17 -20z m164 12 c0 -5 -7 -10 -16 -10 -8 0
-12 5 -9 10 3 6 10 10 16 10 5 0 9 -4 9 -10z m115 0 c-3 -5 -10 -10 -16 -10
-5 0 -9 5 -9 10 0 6 7 10 16 10 8 0 12 -4 9 -10z m495 4 c0 -3 -13 -10 -30
-15 -16 -6 -27 -15 -24 -20 3 -5 -3 -6 -12 -2 -12 4 -15 3 -10 -5 5 -8 2 -10
-8 -6 -23 9 -20 13 27 34 44 20 57 24 57 14z m-530 -14 c0 -5 -7 -10 -15 -10
-8 0 -15 5 -15 10 0 6 7 10 15 10 8 0 15 -4 15 -10z m108 -20 c0 -19 -4 -30
-13 -30 -9 0 -12 9 -10 28 5 34 4 32 13 32 5 0 9 -13 10 -30z m122 16 c0 -8
-7 -16 -15 -20 -15 -5 -21 14 -8 27 11 12 23 8 23 -7z m-515 -14 c-3 -3 -11 0
-18 7 -9 10 -8 11 6 5 10 -3 15 -9 12 -12z m245 -2 c0 -11 -4 -20 -8 -20 -4 0
-8 9 -9 20 -1 11 2 20 8 20 5 0 9 -9 9 -20z m110 10 c0 -5 -4 -10 -10 -10 -5
0 -10 5 -10 10 0 6 5 10 10 10 6 0 10 -4 10 -10z m493 -10 c-4 -14 -14 -20
-32 -20 -19 0 -22 -3 -12 -9 22 -14 -44 -25 -68 -11 -12 6 -21 13 -21 16 0 3
4 3 9 0 5 -4 33 0 63 8 29 8 45 15 35 15 -24 1 -11 21 13 21 13 0 17 -5 13
-20z m-718 0 c11 -18 14 -50 4 -50 -8 0 -11 14 -8 36 0 4 -5 11 -13 15 -9 6
-9 9 -1 9 6 0 15 -4 18 -10z m82 4 c-3 -3 -12 -4 -19 -1 -8 3 -5 6 6 6 11 1
17 -2 13 -5z m113 -4 c0 -5 -7 -10 -15 -10 -8 0 -15 5 -15 10 0 6 7 10 15 10
8 0 15 -4 15 -10z m110 -5 c0 -8 -7 -15 -15 -15 -26 0 -18 20 13 29 1 1 2 -6
2 -14z m-345 -5 c3 -6 -1 -7 -9 -4 -18 7 -21 14 -7 14 6 0 13 -4 16 -10z m82
4 c-3 -3 -12 -4 -19 -1 -8 3 -5 6 6 6 11 1 17 -2 13 -5z m111 -29 c-1 -19 -5
-35 -10 -35 -5 0 -8 10 -7 23 2 12 0 28 -4 35 -5 7 -3 12 7 12 11 0 15 -10 14
-35z m268 9 c-3 -8 -1 -14 4 -14 6 0 10 -7 10 -15 0 -8 -6 -15 -12 -15 -10 0
-9 -3 1 -9 19 -12 4 -31 -25 -31 -27 0 -34 20 -6 21 14 0 14 2 -3 9 -14 5 -24
3 -32 -7 -7 -10 -13 -11 -18 -3 -4 6 -2 16 4 23 6 8 6 18 1 27 -8 12 -10 12
-10 1 0 -8 -7 -11 -20 -8 -11 3 -20 1 -20 -4 0 -5 -4 -9 -10 -9 -5 0 -10 7
-10 16 0 9 7 14 18 12 9 -1 22 0 27 3 21 13 65 19 65 10 0 -5 -5 -13 -10 -16
-15 -9 -2 -25 15 -19 8 4 12 10 9 16 -9 14 4 40 17 33 6 -4 8 -13 5 -21z m149
17 c3 -5 2 -12 -3 -15 -5 -3 -9 1 -9 9 0 17 3 19 12 6z m-640 -19 c-3 -3 -11
0 -18 7 -9 10 -8 11 6 5 10 -3 15 -9 12 -12z m155 8 c0 -5 -7 -10 -16 -10 -8
0 -12 5 -9 10 3 6 10 10 16 10 5 0 9 -4 9 -10z m138 -15 c0 -14 -4 -28 -9 -31
-5 -3 -9 9 -9 25 0 17 4 31 9 31 5 0 9 -11 9 -25z m529 19 c-3 -3 -12 -4 -19
-1 -8 3 -5 6 6 6 11 1 17 -2 13 -5z m-562 -14 c-3 -5 -10 -10 -16 -10 -5 0 -9
5 -9 10 0 6 7 10 16 10 8 0 12 -4 9 -10z m-615 -10 c12 -8 9 -10 -12 -10 -15
0 -30 5 -33 10 -8 13 25 13 45 0z m545 0 c-3 -5 -10 -10 -16 -10 -5 0 -9 5 -9
10 0 6 7 10 16 10 8 0 12 -4 9 -10z m633 3 c-10 -2 -26 -2 -35 0 -10 3 -2 5
17 5 19 0 27 -2 18 -5z m-1115 -10 c-7 -2 -19 -2 -25 0 -7 3 -2 5 12 5 14 0
19 -2 13 -5z m414 1 c-3 -3 -12 -4 -19 -1 -8 3 -5 6 6 6 11 1 17 -2 13 -5z
m213 -4 c0 -5 -7 -10 -15 -10 -8 0 -15 5 -15 10 0 6 7 10 15 10 8 0 15 -4 15
-10z m405 -21 l50 -6 -43 -2 c-38 -1 -102 21 -102 35 0 2 10 -1 23 -8 12 -7
45 -15 72 -19z m-892 -1 c10 -36 -38 -53 -63 -23 -10 12 -10 19 -2 27 8 8 17
5 32 -13 19 -22 20 -22 11 -2 -14 28 -14 33 3 33 7 0 16 -10 19 -22z m407 12
c0 -5 -4 -10 -10 -10 -5 0 -10 5 -10 10 0 6 5 10 10 10 6 0 10 -4 10 -10z
m548 3 c-10 -2 -28 -2 -40 0 -13 2 -5 4 17 4 22 1 32 -1 23 -4z m55 1 c3 -4 2
-15 -4 -25 -7 -13 -20 -19 -42 -17 l-32 1 35 5 c29 4 32 6 15 12 -18 8 -18 9
-2 9 10 1 15 6 12 11 -7 11 8 14 18 4z m-1185 -16 c-2 -4 6 -14 17 -23 19 -14
18 -15 -8 -3 -20 8 -24 14 -15 20 8 6 -5 7 -34 3 -29 -4 -48 -2 -48 4 0 5 20
9 45 8 25 -1 44 -5 43 -9z m419 6 c-3 -3 -12 -4 -19 -1 -8 3 -5 6 6 6 11 1 17
-2 13 -5z m100 0 c-3 -3 -12 -4 -19 -1 -8 3 -5 6 6 6 11 1 17 -2 13 -5z m207
-9 c-4 -8 -10 -15 -15 -15 -5 0 -9 7 -9 15 0 8 7 15 15 15 9 0 12 -6 9 -15z
m-34 -5 c0 -5 -4 -10 -9 -10 -6 0 -13 5 -16 10 -3 6 1 10 9 10 9 0 16 -4 16
-10z m526 -27 c-2 -9 -11 -20 -22 -24 -11 -5 -13 -8 -5 -8 20 -1 12 -8 -32
-26 -46 -19 -49 -10 -4 11 l32 15 -30 -5 -30 -5 28 13 c15 6 25 15 21 18 -3 4
5 4 18 1 18 -4 20 -3 8 6 -11 8 -12 11 -2 11 7 0 10 5 6 12 -4 6 -3 8 4 5 5
-4 9 -15 8 -24z m-1107 3 c9 -10 8 -15 -3 -19 -16 -7 -26 1 -26 20 0 17 14 17
29 -1z m935 5 c3 -4 -6 -6 -19 -3 -14 2 -25 6 -25 8 0 8 39 4 44 -5z m77 -27
c-18 -8 -41 -13 -50 -11 -10 2 -3 8 19 14 51 16 70 14 31 -3z m-946 -4 c3 -5
-1 -10 -9 -10 -8 0 -18 5 -21 10 -3 6 1 10 9 10 8 0 18 -4 21 -10z m-44 -15
c-1 -15 -24 -12 -29 3 -3 9 2 13 12 10 10 -1 17 -7 17 -13z m-36 -6 c10 -15
-1 -23 -20 -15 -9 3 -13 10 -10 16 8 13 22 13 30 -1z m1145 1 c-13 -9 -13 -10
0 -10 10 -1 7 -5 -8 -13 -12 -7 -19 -16 -15 -21 4 -4 -1 -4 -11 0 -13 5 -17 4
-12 -4 3 -6 1 -14 -5 -18 -8 -4 -9 -3 -5 4 10 17 -6 15 -34 -5 -21 -14 -23
-15 -12 -1 7 9 26 21 42 28 16 7 27 16 25 21 -3 4 3 12 12 18 23 13 43 14 23
1z m-1042 -11 c-2 -6 -8 -10 -13 -10 -5 0 -11 4 -13 10 -2 6 4 11 13 11 9 0
15 -5 13 -11z m-37 -14 c-1 -15 -24 -12 -29 3 -3 9 2 13 12 10 10 -1 17 -7 17
-13z m706 -7 c-3 -8 -6 -5 -6 6 -1 11 2 17 5 13 3 -3 4 -12 1 -19z m20 0 c-3
-8 -6 -5 -6 6 -1 11 2 17 5 13 3 -3 4 -12 1 -19z m389 -4 c-1 -15 -11 -31 -23
-38 -12 -6 -22 -15 -22 -19 1 -5 -3 -12 -7 -15 -4 -4 -4 -1 1 7 5 9 3 12 -6 9
-8 -3 -13 -10 -12 -15 2 -13 -35 -14 -43 -1 -4 7 -2 8 5 4 11 -7 62 26 62 41
0 4 10 13 22 20 12 7 18 12 14 13 -5 0 -5 5 -2 10 10 16 12 12 11 -16z m-1148
-4 c3 -9 -2 -11 -17 -7 -15 3 -21 1 -21 -10 0 -9 -6 -13 -15 -9 -8 3 -15 1
-15 -5 0 -5 7 -12 15 -15 21 -8 19 -26 -2 -22 -25 5 -27 68 -2 68 10 0 21 5
24 11 9 13 27 7 33 -11z m85 3 c8 -7 -34 -32 -45 -26 -15 8 -8 25 7 19 8 -3
15 -1 15 4 0 11 13 13 23 3z m-48 -43 c15 -22 25 -28 42 -24 15 4 23 2 23 -6
0 -7 -7 -10 -15 -6 -9 3 -15 0 -15 -8 0 -8 7 -16 15 -20 8 -3 15 -1 15 4 0 6
5 10 10 10 21 0 9 -20 -15 -26 -26 -6 -32 -18 -15 -29 6 -3 10 -11 10 -17 0
-6 -3 -8 -6 -5 -4 4 -15 -3 -26 -15 -14 -17 -21 -19 -30 -10 -9 9 -9 12 1 12
7 0 19 7 28 16 14 14 14 16 -3 29 -18 13 -18 14 -1 15 23 0 22 11 -4 39 -20
21 -23 22 -31 7 -5 -9 -13 -14 -19 -11 -16 10 -10 22 14 29 l22 7 -23 9 c-13
6 -20 14 -17 20 10 16 19 12 40 -20z m735 7 c0 -7 -4 -6 -10 3 -8 12 -10 12
-10 1 0 -8 -3 -12 -6 -8 -9 9 6 28 17 22 5 -4 9 -12 9 -18z m-674 1 c4 -7 3
-8 -4 -4 -7 4 -12 2 -12 -3 0 -6 -7 -11 -15 -11 -21 0 -19 18 3 23 9 3 18 5
19 6 1 0 5 -4 9 -11z m1072 -12 c-8 -6 -14 -19 -12 -28 1 -11 -3 -15 -14 -11
-10 4 -13 2 -8 -5 3 -6 2 -13 -3 -16 -5 -4 -8 2 -7 11 2 9 8 19 14 21 7 2 10
8 6 13 -3 5 2 12 10 15 9 3 13 11 9 17 -4 6 -1 7 7 2 10 -6 10 -10 -2 -19z
m-1177 -1 c-1 -15 -24 -12 -29 3 -3 9 2 13 12 10 10 -1 17 -7 17 -13z m-161
-29 c0 -6 -26 -30 -57 -53 -91 -64 -150 -120 -199 -189 -49 -68 -85 -149 -83
-187 1 -14 4 -8 10 15 16 68 70 161 133 226 67 71 181 162 202 162 30 0 11
-31 -45 -74 -125 -96 -232 -242 -246 -336 -4 -25 0 -19 13 20 36 109 154 254
263 327 34 22 42 24 50 12 6 -10 -2 -23 -34 -48 -92 -75 -218 -229 -217 -265
0 -6 15 14 32 44 33 56 150 186 201 222 23 17 31 18 37 7 6 -9 -18 -41 -80
-106 -98 -102 -158 -206 -165 -284 l-4 -44 9 42 c13 63 44 128 94 197 56 78
151 170 165 162 15 -10 14 -33 -2 -39 -27 -10 -141 -164 -176 -237 -32 -67
-36 -83 -36 -157 0 -84 -11 -105 -34 -65 -10 16 -10 16 -11 0 0 -25 -26 -12
-39 20 -6 15 -15 45 -20 67 -6 27 -9 32 -10 15 0 -14 6 -43 14 -65 18 -48 17
-45 5 -45 -6 0 -22 24 -35 53 -14 28 -25 44 -25 34 0 -10 7 -32 17 -50 15 -30
15 -31 -1 -18 -26 22 -48 69 -62 131 -9 38 -12 46 -13 25 0 -16 8 -55 19 -85
l18 -55 -24 30 c-36 45 -47 90 -42 169 7 102 48 179 152 282 80 80 202 168
218 158 4 -3 8 -11 8 -18z m857 2 c-3 -8 -6 -5 -6 6 -1 11 2 17 5 13 3 -3 4
-12 1 -19z m80 -10 c-3 -7 -5 -2 -5 12 0 14 2 19 5 13 2 -7 2 -19 0 -25z m-60
0 c-3 -8 -6 -5 -6 6 -1 11 2 17 5 13 3 -3 4 -12 1 -19z m40 0 c-3 -8 -6 -5 -6
6 -1 11 2 17 5 13 3 -3 4 -12 1 -19z m-805 -8 c12 -11 18 -23 15 -27 -4 -3
-16 3 -27 15 -33 35 -23 45 12 12z m57 -5 c13 -14 20 -29 17 -33 -4 -4 -13 0
-19 9 -7 8 -20 18 -30 22 -10 4 -15 11 -12 17 9 15 18 12 44 -15z m1198 10 c0
-8 -4 -12 -9 -9 -5 3 -6 10 -3 15 9 13 12 11 12 -6z m-1307 -5 c0 -5 -2 -10
-4 -10 -3 0 -8 5 -11 10 -3 6 -1 10 4 10 6 0 11 -4 11 -10z m151 -13 c-1 -12
-15 -9 -19 4 -3 6 1 10 8 8 6 -3 11 -8 11 -12z m615 -6 c2 -8 1 -8 -3 0 -4 8
-7 8 -13 -1 -5 -9 -9 -8 -13 3 -4 10 0 14 11 13 9 -2 17 -8 18 -15z m21 -13
c-3 -8 -6 -5 -6 6 -1 11 2 17 5 13 3 -3 4 -12 1 -19z m20 0 c-3 -8 -6 -5 -6 6
-1 11 2 17 5 13 3 -3 4 -12 1 -19z m33 7 c0 -8 -4 -15 -10 -15 -5 0 -10 7 -10
15 0 8 5 15 10 15 6 0 10 -7 10 -15z m17 -7 c-3 -8 -6 -5 -6 6 -1 11 2 17 5
13 3 -3 4 -12 1 -19z m437 1 c-3 -5 -10 -7 -15 -3 -5 3 -7 10 -3 15 3 5 10 7
15 3 5 -3 7 -10 3 -15z m-1231 -22 c10 -4 15 -11 12 -17 -3 -5 -1 -10 6 -10 7
0 24 -11 39 -25 18 -17 32 -23 48 -19 12 4 19 10 16 15 -9 15 8 10 28 -8 12
-10 18 -12 18 -4 0 7 4 9 10 6 10 -6 -10 -36 -20 -30 -8 5 -29 -22 -23 -29 4
-3 1 -6 -5 -6 -16 0 -24 18 -10 23 10 4 9 8 -2 16 -11 8 -16 6 -21 -7 -4 -10
-14 -24 -23 -31 -14 -12 -19 -12 -29 -1 -10 10 -9 12 5 7 13 -4 15 -2 11 10
-5 12 -2 15 10 10 9 -3 17 -5 17 -3 0 8 -50 56 -58 56 -11 0 -72 67 -72 78 0
4 6 0 13 -9 7 -8 20 -18 30 -22z m46 -2 c13 -14 18 -25 12 -25 -13 0 -51 31
-51 42 0 15 15 8 39 -17z m145 9 c4 -9 4 -19 1 -22 -3 -3 -5 0 -5 7 0 8 -7 10
-20 6 -12 -4 -20 -2 -20 5 0 6 5 8 10 5 6 -3 10 -1 10 4 0 17 17 13 24 -5z
m494 4 c12 -1 22 -6 22 -11 0 -4 5 -5 10 -2 6 3 10 2 10 -4 0 -5 -9 -9 -20 -8
-11 1 -20 6 -20 12 0 5 -5 3 -10 -5 -7 -11 -10 -11 -10 -2 0 7 -4 10 -10 7 -5
-3 -10 -2 -10 4 0 5 -9 8 -20 6 -11 -2 -22 0 -25 4 -2 5 10 7 28 4 17 -2 42
-5 55 -5z m526 -20 c-3 -5 -12 -4 -20 3 -7 6 -11 15 -8 21 3 5 12 4 20 -3 7
-6 11 -15 8 -21z m-1123 9 c-1 -12 -15 -9 -19 4 -3 6 1 10 8 8 6 -3 11 -8 11
-12z m1173 -8 c-3 -5 -10 -7 -15 -3 -5 3 -7 10 -3 15 3 5 10 7 15 3 5 -3 7
-10 3 -15z m-517 -11 c-3 -8 -6 -5 -6 6 -1 11 2 17 5 13 3 -3 4 -12 1 -19z
m49 8 c10 -8 16 -17 13 -21 -4 -3 -14 1 -22 9 -12 12 -17 13 -20 3 -3 -7 -6
-5 -6 6 -1 21 9 22 35 3z m-553 -11 c-3 -9 -8 -14 -10 -11 -3 3 -2 9 2 15 9
16 15 13 8 -4z m-253 -5 c0 -5 -4 -10 -10 -10 -5 0 -10 5 -10 10 0 6 5 10 10
10 6 0 10 -4 10 -10z m189 -11 c-19 -12 -29 -11 -29 2 0 5 5 7 10 4 6 -3 10
-1 10 5 0 6 5 8 11 4 8 -4 7 -9 -2 -15z m395 8 c3 3 6 1 6 -6 0 -7 5 -9 10 -6
6 3 10 1 10 -4 0 -6 -2 -11 -5 -11 -10 0 -65 30 -65 36 0 2 8 0 19 -5 10 -6
21 -7 25 -4z m73 -9 c-3 -8 -6 -5 -6 6 -1 11 2 17 5 13 3 -3 4 -12 1 -19z m53
-6 c0 -11 -3 -12 -13 -3 -8 6 -17 8 -20 4 -4 -3 -7 -1 -7 5 0 6 9 10 20 9 11
-1 20 -8 20 -15z m17 -14 c-3 -7 -5 -2 -5 12 0 14 2 19 5 13 2 -7 2 -19 0 -25z
m33 7 c0 -8 -4 -15 -10 -15 -5 0 -10 7 -10 15 0 8 5 15 10 15 6 0 10 -7 10
-15z m17 -17 c-3 -7 -5 -2 -5 12 0 14 2 19 5 13 2 -7 2 -19 0 -25z m-747 13
c0 -14 -29 -21 -36 -9 -4 7 -3 8 4 4 7 -4 12 -2 12 3 0 6 5 11 10 11 6 0 10
-4 10 -9z m199 -25 c-3 -3 -11 5 -18 17 -13 21 -12 21 5 5 10 -10 16 -20 13
-22z m568 12 c-3 -8 -6 -5 -6 6 -1 11 2 17 5 13 3 -3 4 -12 1 -19z m-121 -15
c-10 -10 -19 5 -10 18 6 11 8 11 12 0 2 -7 1 -15 -2 -18z m-616 -4 c0 -6 -4
-7 -10 -4 -5 3 -10 11 -10 16 0 6 5 7 10 4 6 -3 10 -11 10 -16z m551 7 c5 3 9
0 9 -6 0 -6 5 -8 10 -5 12 8 13 -1 1 -42 -7 -25 -6 -35 5 -41 10 -6 12 -17 8
-40 -7 -32 -24 -45 -24 -17 0 9 -6 12 -15 9 -8 -4 -15 -1 -15 5 0 6 -4 10 -9
9 -13 -4 -14 3 -6 35 4 15 11 27 16 27 13 0 11 -18 -3 -26 -7 -5 -5 -11 7 -21
24 -17 35 -17 35 2 0 9 -6 12 -15 9 -15 -6 -21 7 -8 20 4 3 8 12 9 19 1 7 3
17 5 24 2 6 0 11 -5 11 -5 0 -13 6 -17 14 -7 10 -10 8 -15 -9 -5 -18 -9 -20
-24 -10 -10 6 -16 15 -13 20 3 5 9 4 13 -3 6 -9 12 -6 21 11 7 15 14 19 17 11
2 -6 8 -10 13 -6z m89 -1 c0 -8 -4 -15 -10 -15 -5 0 -7 7 -4 15 4 8 8 15 10
15 2 0 4 -7 4 -15z m30 -4 c0 -6 -4 -13 -10 -16 -5 -3 -10 1 -10 9 0 9 5 16
10 16 6 0 10 -4 10 -9z m17 -13 c-3 -8 -6 -5 -6 6 -1 11 2 17 5 13 3 -3 4 -12
1 -19z m-715 -6 c-7 -2 -9 -9 -6 -14 4 -7 2 -8 -4 -4 -6 4 -9 13 -6 21 4 8 11
12 17 8 8 -5 7 -8 -1 -11z m184 6 c4 -7 3 -8 -4 -4 -7 4 -12 2 -12 -5 0 -7 -3
-10 -6 -6 -6 5 3 27 11 27 2 0 7 -5 11 -12z m50 0 c4 -7 3 -8 -4 -4 -7 4 -12
3 -12 -1 0 -5 -6 -17 -13 -28 -11 -14 -16 -15 -22 -5 -5 8 -4 11 2 7 6 -4 15
5 21 18 13 28 18 30 28 13z m501 -10 c-3 -8 -6 -5 -6 6 -1 11 2 17 5 13 3 -3
4 -12 1 -19z m-97 -3 c0 -8 -4 -15 -10 -15 -5 0 -10 7 -10 15 0 8 5 15 10 15
6 0 10 -7 10 -15z m34 -1 c17 -7 22 -34 6 -34 -5 0 -10 5 -10 11 0 5 -4 7 -10
4 -5 -3 -10 1 -10 9 0 18 2 19 24 10z m-701 -16 c2 -7 -14 -33 -35 -57 -106
-121 -160 -236 -162 -343 -1 -56 -4 -68 -17 -68 -22 0 -29 21 -29 83 1 100 61
223 164 334 60 65 71 72 79 51z m178 -6 c-9 -3 -7 -10 6 -25 18 -21 17 -21 -1
-7 -15 12 -20 12 -24 2 -3 -10 -9 -9 -24 4 -15 15 -21 16 -27 5 -5 -8 -14 -10
-21 -6 -9 5 -11 4 -6 -3 9 -15 -2 -34 -15 -27 -13 9 8 45 27 45 8 0 12 5 9 10
-8 13 8 13 21 0 12 -12 44 -3 44 12 0 5 5 6 12 2 9 -6 9 -9 -1 -12z m389 -14
c0 -13 -18 -9 -23 5 -4 7 -8 3 -12 -10 -4 -13 -11 -21 -15 -18 -5 3 -3 16 3
29 9 19 14 22 29 12 10 -6 18 -14 18 -18z m40 22 c0 -5 -4 -10 -10 -10 -5 0
-10 5 -10 10 0 6 5 10 10 10 6 0 10 -4 10 -10z m133 -15 c-7 -21 -13 -19 -13
6 0 11 4 18 10 14 5 -3 7 -12 3 -20z m19 -7 c-7 -7 -12 -8 -12 -2 0 6 3 14 7
17 3 4 9 5 12 2 2 -3 -1 -11 -7 -17z m-508 -13 c-9 -14 -18 -25 -21 -25 -5 0
5 18 20 38 17 22 18 13 1 -13z m406 9 c0 -8 -4 -12 -10 -9 -5 3 -10 10 -10 16
0 5 5 9 10 9 6 0 10 -7 10 -16z m30 -9 c0 -8 -4 -15 -10 -15 -5 0 -10 7 -10
15 0 8 5 15 10 15 6 0 10 -7 10 -15z m-660 -10 c0 -8 -20 -41 -44 -72 -80
-103 -123 -209 -127 -310 -3 -57 -19 -70 -40 -31 -15 28 -5 112 21 178 50 126
190 299 190 235z m677 -7 c-3 -8 -6 -5 -6 6 -1 11 2 17 5 13 3 -3 4 -12 1 -19z
m-574 -19 c-17 -17 -36 -1 -20 16 7 8 16 10 22 4 5 -6 5 -13 -2 -20z m427 22
c0 -6 -5 -13 -10 -16 -6 -4 -8 -11 -4 -16 3 -5 1 -15 -4 -22 -6 -7 -10 -16
-10 -22 0 -5 -5 -11 -11 -13 -6 -2 -11 4 -11 14 0 22 -16 7 -22 -21 -5 -19 -5
-19 -13 -1 -5 12 -3 21 6 27 8 5 10 9 6 9 -5 0 -5 5 -2 10 5 8 11 7 21 -1 8
-6 18 -9 22 -5 4 4 -1 13 -11 20 -9 7 -17 19 -17 27 1 9 6 8 16 -6 14 -19 15
-19 20 3 6 21 24 31 24 13z m180 0 c0 -6 -4 -13 -10 -16 -5 -3 -10 1 -10 9 0
9 5 16 10 16 6 0 10 -4 10 -9z m-557 -20 c-6 -3 -17 -19 -25 -34 -13 -25 -16
-27 -28 -13 -11 14 -10 16 5 10 13 -5 16 -4 11 4 -4 7 -2 12 5 12 7 0 10 3 6
6 -8 9 16 33 27 27 4 -3 4 -8 -1 -12z m-123 -14 c0 -7 -15 -33 -33 -59 -44
-61 -97 -178 -103 -225 -4 -31 -2 -29 11 14 22 80 117 253 138 253 22 0 14
-33 -23 -96 -41 -70 -80 -177 -80 -220 0 -19 -5 -24 -24 -24 -15 0 -26 7 -29
18 -3 12 -5 10 -7 -8 -1 -14 -2 -28 -1 -32 1 -10 -11 -10 -28 1 -23 15 -8 120
27 196 32 66 80 143 115 182 20 22 37 22 37 0z m157 -2 c-9 -7 -14 -15 -10
-18 3 -4 1 -7 -6 -7 -7 0 -9 -4 -6 -10 3 -5 1 -10 -5 -10 -6 0 -9 -4 -5 -9 3
-5 -4 -12 -15 -16 -11 -4 -18 -11 -14 -16 3 -5 -10 -50 -30 -98 -20 -49 -36
-94 -36 -100 0 -9 -31 -31 -44 -31 -3 0 -6 8 -7 18 -1 17 -20 -32 -21 -55 -1
-7 -6 -13 -12 -13 -6 0 -4 -5 4 -10 13 -9 13 -10 0 -10 -11 0 -12 -3 -3 -8 6
-4 14 -19 17 -34 3 -21 1 -25 -11 -21 -12 5 -12 7 -1 14 10 7 11 9 0 9 -7 0
-11 4 -7 9 3 6 -3 14 -12 20 -14 8 -15 10 -3 11 13 0 13 1 0 10 -12 8 -12 10
-1 10 11 0 11 3 1 15 -8 9 -9 28 -5 56 8 48 97 230 122 250 9 8 14 9 10 2 -4
-6 -3 -14 2 -17 5 -4 -8 -41 -29 -84 -21 -42 -41 -90 -45 -107 -4 -16 9 5 28
48 41 91 63 126 83 134 7 3 11 9 8 14 -3 5 0 9 6 9 6 0 8 5 5 10 -3 6 -1 10 5
10 6 0 9 4 5 9 -3 5 4 12 15 16 11 4 17 11 14 17 -5 7 -2 8 6 3 10 -6 10 -11
-3 -20z m463 10 c0 -8 -4 -15 -10 -15 -5 0 -10 7 -10 15 0 8 5 15 10 15 6 0
10 -7 10 -15z m-415 -4 c3 -5 2 -12 -3 -15 -5 -3 -9 1 -9 9 0 17 3 19 12 6z
m215 -1 c0 -5 -4 -10 -10 -10 -5 0 -10 5 -10 10 0 6 5 10 10 10 6 0 10 -4 10
-10z m230 -1 c0 -5 6 -7 13 -3 6 4 8 3 4 -1 -13 -15 -37 -14 -37 1 0 8 5 14
10 14 6 0 10 -5 10 -11z m-107 -56 c-5 -14 -8 -13 -20 3 -7 10 -13 14 -13 9 0
-5 -5 -4 -11 2 -6 6 -8 16 -5 22 11 17 56 -17 49 -36z m-366 12 c-9 -7 -14
-15 -10 -18 3 -4 1 -7 -6 -7 -7 0 -9 -4 -6 -10 3 -5 0 -10 -7 -10 -9 0 -9 -3
2 -10 8 -5 10 -10 4 -10 -6 0 -11 -6 -12 -12 -1 -26 -54 -143 -70 -155 -41
-33 -39 -9 10 100 19 40 37 67 46 67 8 0 13 3 9 6 -8 9 21 64 34 64 6 0 7 5 3
12 -5 7 -3 8 6 3 10 -6 10 -11 -3 -20z m224 12 c-1 -12 -15 -9 -19 4 -3 6 1
10 8 8 6 -3 11 -8 11 -12z m209 -2 c0 -8 -4 -15 -10 -15 -5 0 -10 7 -10 15 0
8 5 15 10 15 6 0 10 -7 10 -15z m24 -10 c-4 -8 -8 -15 -10 -15 -2 0 -4 7 -4
15 0 8 4 15 10 15 5 0 7 -7 4 -15z m-244 -31 c0 -8 -4 -14 -10 -14 -5 0 -10 9
-10 21 0 11 5 17 10 14 6 -3 10 -13 10 -21z m133 2 c14 -13 28 -22 31 -20 3 2
4 1 2 -2 -2 -3 -6 -4 -9 -2 -2 2 -12 -3 -21 -11 -9 -8 -16 -10 -15 -5 4 21 -2
34 -13 32 -6 -2 -14 5 -16 15 -5 24 10 21 41 -7z m55 12 c-6 -18 -28 -21 -28
-4 0 9 7 16 16 16 9 0 14 -5 12 -12z m19 -18 c-1 -12 -5 -16 -10 -11 -5 5 -6
14 -3 20 11 16 15 13 13 -9z m-247 6 c0 -3 -5 -17 -10 -32 -8 -19 -14 -24 -21
-17 -8 8 -7 17 0 32 10 18 31 30 31 17z m109 -13 c-1 -10 -4 -29 -8 -43 -10
-35 -24 -8 -16 30 7 32 26 42 24 13z m-257 0 c-6 -2 -10 -9 -6 -14 3 -5 1 -9
-3 -9 -5 0 -9 -10 -9 -22 -1 -36 -30 -95 -53 -108 -27 -14 -27 -3 0 61 12 27
27 49 34 49 7 0 12 8 11 18 -3 17 11 32 29 31 6 0 4 -3 -3 -6z m218 -19 c0 -8
-4 -14 -9 -14 -11 0 -22 26 -14 34 9 9 23 -3 23 -20z m-32 -9 c13 -13 21 -29
17 -35 -10 -16 -25 -12 -26 8 0 10 -3 12 -6 5 -5 -14 -33 -18 -33 -5 0 17 13
52 19 52 3 0 16 -11 29 -25z m107 7 c0 -18 -20 -15 -23 4 -3 10 1 15 10 12 7
-3 13 -10 13 -16z m-260 -2 c-3 -5 -12 -10 -18 -10 -7 0 -6 4 3 10 19 12 23
12 15 0z m-14 -27 c-10 -4 -10 -7 -1 -13 9 -5 5 -14 -11 -29 -14 -12 -25 -17
-27 -11 -5 15 26 60 41 59 8 0 8 -2 -2 -6z m332 -9 c-7 -3 -9 -13 -6 -22 4
-14 3 -14 -5 -2 -12 16 -7 30 11 29 9 0 9 -2 0 -5z m-39 -39 c-4 -8 -8 -15
-10 -15 -2 0 -4 7 -4 15 0 8 4 15 10 15 5 0 7 -7 4 -15z m26 -15 c0 -5 -5 -10
-11 -10 -5 0 -7 5 -4 10 3 6 8 10 11 10 2 0 4 -4 4 -10z m-114 -24 c0 -14 -3
-23 -7 -20 -6 3 -6 22 0 42 3 10 7 -2 7 -22z m41 -6 c-1 -21 -12 -26 -22 -10
-3 6 -1 10 5 10 6 0 8 5 5 10 -3 6 -2 10 4 10 5 0 9 -9 8 -20z m36 -10 c-3
-11 -9 -20 -14 -20 -4 0 -7 9 -6 20 1 11 7 20 13 20 7 0 10 -8 7 -20z m-193
-158 c-9 -14 -10 -11 -6 17 3 18 7 59 8 90 2 51 2 49 5 -17 2 -42 -1 -79 -7
-90z m150 128 c0 -5 -4 -10 -10 -10 -5 0 -10 5 -10 10 0 6 5 10 10 10 6 0 10
-4 10 -10z m-172 -31 c-3 -8 -7 -3 -11 10 -4 17 -3 21 5 13 5 -5 8 -16 6 -23z
m202 21 c0 -5 -5 -10 -11 -10 -5 0 -7 5 -4 10 3 6 8 10 11 10 2 0 4 -4 4 -10z
m-214 -85 c1 -31 -2 -57 -6 -60 -5 -3 -6 5 -3 17 4 19 3 20 -7 8 -9 -12 -10
-10 -5 13 3 17 2 26 -4 23 -5 -3 -7 3 -4 15 4 16 8 17 14 7 14 -21 11 8 -2 35
-10 18 -9 20 2 9 8 -7 14 -36 15 -67z m175 62 c-1 -12 -15 -9 -19 4 -3 6 1 10
8 8 6 -3 11 -8 11 -12z m-335 -46 c-9 -10 -13 -21 -9 -26 5 -4 3 -5 -4 -2 -6
4 -10 13 -9 20 3 21 17 38 27 31 6 -4 4 -13 -5 -23z m61 14 c0 -6 -6 -12 -12
-12 -6 0 -12 6 -12 12 0 6 6 12 12 12 6 0 12 -6 12 -12z m-110 -10 c0 -8 -4
-12 -9 -9 -5 3 -6 10 -3 15 9 13 12 11 12 -6z m147 7 c3 -5 -1 -9 -9 -9 -8 0
-12 4 -9 9 3 4 7 8 9 8 2 0 6 -4 9 -8z m-209 -22 c-3 -5 -1 -11 3 -14 11 -7 9
-46 -2 -65 -7 -11 -5 -13 6 -9 8 4 15 0 15 -7 0 -10 -5 -11 -19 -4 -10 6 -16
14 -13 20 4 5 2 9 -4 9 -5 0 -8 8 -6 18 1 9 -2 23 -7 29 -7 9 -5 15 6 19 9 3
13 11 9 17 -3 6 -1 7 6 3 6 -4 9 -11 6 -16z m40 -21 c-3 -15 0 -19 10 -15 9 3
12 -1 10 -15 -2 -10 -1 -19 4 -19 4 0 7 -11 7 -24 0 -14 -4 -22 -8 -20 -5 3
-6 9 -3 14 3 4 -2 11 -11 14 -14 5 -14 9 -3 23 12 14 12 16 -2 11 -12 -5 -15
0 -13 20 2 31 3 32 8 32 3 0 3 -9 1 -21z m132 -12 c1 -14 -6 -31 -15 -38 -14
-11 -15 -11 -4 1 16 19 16 35 -1 22 -11 -9 -13 -5 -13 17 0 37 30 36 33 -2z
m50 11 c0 -13 3 -32 7 -43 6 -14 5 -16 -2 -6 -8 11 -11 11 -16 0 -3 -8 -3 -3
0 10 4 14 2 21 -4 17 -5 -3 -13 1 -16 10 -3 8 -2 12 4 9 6 -3 13 1 16 9 8 22
12 20 11 -6z m-331 -3 c-3 -8 0 -15 6 -15 6 0 9 -3 5 -6 -3 -3 -14 -1 -24 5
-14 8 -14 10 -3 11 13 0 13 1 0 10 -13 8 -12 10 4 10 12 0 16 -5 12 -15z m224
-10 c-10 -12 -10 -15 0 -15 8 0 10 -3 7 -6 -3 -4 -2 -15 3 -25 7 -12 6 -20 -2
-25 -7 -5 -8 -3 -3 6 6 10 4 12 -9 7 -9 -4 -15 -3 -12 1 2 4 1 14 -4 22 -6 10
-3 21 7 32 20 22 31 24 13 3z m-280 -5 c13 -8 13 -10 -2 -10 -9 0 -20 5 -23
10 -8 13 5 13 25 0z m-135 -10 c3 -6 -1 -7 -9 -4 -18 7 -21 14 -7 14 6 0 13
-4 16 -10z m45 -4 c-1 -5 4 -13 12 -17 7 -5 8 -9 2 -9 -6 0 -19 10 -30 21 -18
20 -18 21 -1 18 10 -2 17 -8 17 -13z m53 -3 c-7 -2 -19 -2 -25 0 -7 3 -2 5 12
5 14 0 19 -2 13 -5z m98 -11 c-7 -2 -18 1 -23 6 -8 8 -4 9 13 5 13 -4 18 -8
10 -11z m-46 -2 c3 -5 2 -10 -4 -10 -5 0 -13 5 -16 10 -3 6 -2 10 4 10 5 0 13
-4 16 -10z m-40 -18 c-3 -3 -11 0 -18 7 -9 10 -8 11 6 5 10 -3 15 -9 12 -12z
m375 14 c0 -2 -8 -10 -17 -17 -16 -13 -17 -12 -4 4 13 16 21 21 21 13z m-275
-16 c3 -5 2 -10 -4 -10 -5 0 -13 5 -16 10 -3 6 -2 10 4 10 5 0 13 -4 16 -10z
m-40 -10 c3 -6 -1 -7 -9 -4 -18 7 -21 14 -7 14 6 0 13 -4 16 -10z"/>
<path d="M3058 3213 c7 -3 16 -2 19 1 4 3 -2 6 -13 5 -11 0 -14 -3 -6 -6z"/>
<path d="M3270 3040 c-8 -5 -10 -10 -5 -10 6 0 17 5 25 10 8 5 11 10 5 10 -5
0 -17 -5 -25 -10z"/>
<path d="M1766 2565 c-3 -9 -6 -22 -5 -28 0 -7 5 -1 10 12 5 13 8 26 5 28 -2
2 -6 -3 -10 -12z"/>
<path d="M1752 2500 c0 -14 2 -19 5 -12 2 6 2 18 0 25 -3 6 -5 1 -5 -13z"/>
<path d="M1802 2390 c0 -19 2 -27 5 -17 2 9 2 25 0 35 -3 9 -5 1 -5 -18z"/>
<path d="M2240 2840 c0 -5 5 -10 10 -10 6 0 10 5 10 10 0 6 -4 10 -10 10 -5 0
-10 -4 -10 -10z"/>
<path d="M2145 2330 c3 -5 11 -10 16 -10 6 0 7 5 4 10 -3 6 -11 10 -16 10 -6
0 -7 -4 -4 -10z"/>
<path d="M2317 2333 c-4 -3 -7 -11 -7 -17 0 -6 5 -5 12 2 6 6 9 14 7 17 -3 3
-9 2 -12 -2z"/>
<path d="M2545 3991 c58 -26 131 -103 170 -180 40 -78 46 -76 9 3 -14 30 -42
73 -62 97 -39 45 -116 99 -141 99 -9 0 2 -9 24 -19z"/>
<path d="M2671 3962 c35 -32 70 -77 90 -116 19 -36 35 -63 37 -61 2 1 -10 29
-26 62 -31 61 -93 132 -134 154 -13 7 2 -11 33 -39z"/>
<path d="M2441 3981 c88 -17 168 -90 227 -206 39 -75 42 -64 5 13 -54 109
-167 204 -240 201 -24 -1 -23 -2 8 -8z"/>
<path d="M2398 3953 c7 -3 16 -2 19 1 4 3 -2 6 -13 5 -11 0 -14 -3 -6 -6z"/>
<path d="M2471 3922 c75 -48 134 -132 186 -262 12 -32 13 -32 7 -5 -18 91
-124 244 -196 281 -46 24 -44 16 3 -14z"/>
<path d="M2421 3892 c60 -39 113 -102 155 -187 19 -38 32 -59 28 -45 -21 81
-118 209 -186 246 -44 25 -42 14 3 -14z"/>
<path d="M2812 3730 c0 -8 4 -26 8 -40 6 -20 8 -21 8 -5 0 11 -3 29 -8 40 -5
12 -8 14 -8 5z"/>
<path d="M2701 3705 c0 -5 6 -30 13 -55 8 -25 15 -36 15 -25 -1 21 -27 98 -28
80z"/>
<path d="M2761 3705 c1 -5 7 -41 15 -80 l14 -70 -5 57 c-4 46 -24 126 -24 93z"/>
<path d="M2832 3630 c0 -19 2 -27 5 -17 2 9 2 25 0 35 -3 9 -5 1 -5 -18z"/>
<path d="M2611 3625 c0 -5 6 -30 13 -55 8 -25 15 -36 15 -25 -1 21 -27 98 -28
80z"/>
<path d="M2671 3604 c0 -11 3 -14 6 -6 3 7 2 16 -1 19 -3 4 -6 -2 -5 -13z"/>
<path d="M2682 3560 c0 -14 2 -19 5 -12 2 6 2 18 0 25 -3 6 -5 1 -5 -13z"/>
<path d="M2582 3540 c0 -8 4 -26 8 -40 6 -20 8 -21 8 -5 0 11 -3 29 -8 40 -5
12 -8 14 -8 5z"/>
<path d="M2642 3495 c0 -16 2 -22 5 -12 2 9 2 23 0 30 -3 6 -5 -1 -5 -18z"/>
<path d="M1880 3019 c-188 -107 -316 -272 -327 -423 -3 -33 -1 -71 4 -83 5
-15 8 5 8 60 0 73 4 90 34 151 54 110 151 203 327 313 39 25 7 12 -46 -18z"/>
<path d="M3060 2980 c-34 -7 -34 -7 -5 -8 17 0 41 4 55 8 33 11 0 11 -50 0z"/>
<path d="M3128 2933 c7 -3 16 -2 19 1 4 3 -2 6 -13 5 -11 0 -14 -3 -6 -6z"/>
<path d="M3048 2923 c12 -2 30 -2 40 0 9 3 -1 5 -23 4 -22 0 -30 -2 -17 -4z"/>
<path d="M3063 2873 c15 -2 37 -2 50 0 12 2 0 4 -28 4 -27 0 -38 -2 -22 -4z"/>
<path d="M3205 2845 c-22 -8 -31 -14 -20 -14 11 0 34 6 50 14 38 17 22 17 -30
0z"/>
<path d="M3108 2823 c12 -2 30 -2 40 0 9 3 -1 5 -23 4 -22 0 -30 -2 -17 -4z"/>
<path d="M2953 2773 c9 -2 25 -2 35 0 9 3 1 5 -18 5 -19 0 -27 -2 -17 -5z"/>
<path d="M3153 2773 c9 -2 23 -2 30 0 6 3 -1 5 -18 5 -16 0 -22 -2 -12 -5z"/>
<path d="M3073 2763 c9 -2 23 -2 30 0 6 3 -1 5 -18 5 -16 0 -22 -2 -12 -5z"/>
<path d="M3255 2740 c-13 -6 -15 -9 -5 -9 8 0 22 4 30 9 18 12 2 12 -25 0z"/>
<path d="M2963 2723 c9 -2 23 -2 30 0 6 3 -1 5 -18 5 -16 0 -22 -2 -12 -5z"/>
<path d="M3198 2723 c6 -2 18 -2 25 0 6 3 1 5 -13 5 -14 0 -19 -2 -12 -5z"/>
<path d="M3058 2713 c23 -2 61 -2 85 0 23 2 4 4 -43 4 -47 0 -66 -2 -42 -4z"/>
<path d="M2958 2673 c6 -2 18 -2 25 0 6 3 1 5 -13 5 -14 0 -19 -2 -12 -5z"/>
<path d="M3013 2663 c9 -2 25 -2 35 0 9 3 1 5 -18 5 -19 0 -27 -2 -17 -5z"/>
<path d="M2895 2640 c11 -5 27 -9 35 -9 9 0 8 4 -5 9 -11 5 -27 9 -35 9 -9 0
-8 -4 5 -9z"/>
<path d="M2958 2623 c7 -3 16 -2 19 1 4 3 -2 6 -13 5 -11 0 -14 -3 -6 -6z"/>
<path d="M2998 2613 c6 -2 18 -2 25 0 6 3 1 5 -13 5 -14 0 -19 -2 -12 -5z"/>
<path d="M3238 2613 c7 -3 16 -2 19 1 4 3 -2 6 -13 5 -11 0 -14 -3 -6 -6z"/>
<path d="M3093 2603 c26 -2 67 -2 90 0 23 2 2 3 -48 3 -49 0 -68 -1 -42 -3z"/>
<path d="M2890 2590 c8 -5 22 -9 30 -9 10 0 8 3 -5 9 -27 12 -43 12 -25 0z"/>
<path d="M2955 2570 c11 -5 29 -8 40 -8 16 0 15 2 -5 8 -34 11 -60 11 -35 0z"/>
<path d="M3033 2553 c9 -2 23 -2 30 0 6 3 -1 5 -18 5 -16 0 -22 -2 -12 -5z"/>
<path d="M3108 2543 c17 -2 47 -2 65 0 17 2 3 4 -33 4 -36 0 -50 -2 -32 -4z"/>
<path d="M2998 2503 c6 -2 18 -2 25 0 6 3 1 5 -13 5 -14 0 -19 -2 -12 -5z"/>
<path d="M2870 2490 c8 -5 20 -10 25 -10 6 0 3 5 -5 10 -8 5 -19 10 -25 10 -5
0 -3 -5 5 -10z"/>
<path d="M3053 2493 c9 -2 23 -2 30 0 6 3 -1 5 -18 5 -16 0 -22 -2 -12 -5z"/>
<path d="M3213 2493 c9 -2 23 -2 30 0 6 3 -1 5 -18 5 -16 0 -22 -2 -12 -5z"/>
<path d="M2978 2453 c7 -3 16 -2 19 1 4 3 -2 6 -13 5 -11 0 -14 -3 -6 -6z"/>
<path d="M3018 2443 c7 -3 16 -2 19 1 4 3 -2 6 -13 5 -11 0 -14 -3 -6 -6z"/>
<path d="M2522 2420 c0 -14 2 -19 5 -12 2 6 2 18 0 25 -3 6 -5 1 -5 -13z"/>
<path d="M3073 2433 c9 -2 25 -2 35 0 9 3 1 5 -18 5 -19 0 -27 -2 -17 -5z"/>
<path d="M3193 2433 c9 -2 25 -2 35 0 9 3 1 5 -18 5 -19 0 -27 -2 -17 -5z"/>
<path d="M3108 2373 c23 -2 59 -2 80 0 20 2 1 4 -43 4 -44 0 -61 -2 -37 -4z"/>
<path d="M2965 2340 c11 -5 27 -9 35 -9 9 0 8 4 -5 9 -11 5 -27 9 -35 9 -9 0
-8 -4 5 -9z"/>
<path d="M3028 2323 c6 -2 18 -2 25 0 6 3 1 5 -13 5 -14 0 -19 -2 -12 -5z"/>
<path d="M3108 2313 c17 -2 47 -2 65 0 17 2 3 4 -33 4 -36 0 -50 -2 -32 -4z"/>
<path d="M1108 2169 c-30 -17 -22 -47 17 -63 36 -15 46 -42 21 -52 -8 -3 -24
-1 -35 6 -12 6 -21 7 -21 1 0 -23 62 -28 80 -6 18 22 3 51 -33 61 -43 13 -43
39 1 39 17 0 32 3 32 7 0 5 -4 8 -9 8 -5 0 -15 2 -23 5 -7 2 -21 0 -30 -6z"/>
<path d="M3644 2165 c-18 -14 -17 -14 14 -9 27 6 32 4 32 -13 0 -11 -13 -32
-30 -48 -43 -41 -39 -55 13 -54 l42 2 -38 6 -38 6 35 34 c40 39 46 65 17 81
-25 13 -23 13 -47 -5z"/>
<path d="M3759 2162 c-24 -20 -29 -83 -9 -107 20 -24 58 -18 76 11 14 20 15
33 8 61 -11 45 -43 60 -75 35z m56 -51 c0 -30 -5 -47 -17 -54 -23 -15 -48 8
-48 43 0 47 10 61 39 58 24 -3 26 -7 26 -47z"/>
<path d="M3883 2169 c-33 -12 -28 -20 7 -13 23 5 31 2 37 -11 5 -14 -3 -27
-30 -49 -49 -41 -48 -56 6 -54 36 1 38 2 10 5 -41 5 -41 16 -3 43 52 37 30
101 -27 79z"/>
<path d="M3984 2165 c-18 -14 -17 -14 14 -9 28 6 32 4 32 -15 0 -12 -6 -21
-15 -21 -22 0 -18 -17 5 -23 24 -6 26 -35 4 -44 -9 -3 -25 -1 -35 6 -11 6 -19
7 -19 2 0 -11 25 -21 50 -21 28 0 43 33 26 56 -11 14 -11 22 -2 37 9 15 7 21
-8 33 -25 18 -28 17 -52 -1z"/>
<path d="M980 2105 l0 -65 43 2 c36 1 38 2 10 5 -27 4 -33 9 -33 29 0 19 5 24
25 24 14 0 25 5 25 10 0 6 -11 10 -25 10 -18 0 -25 5 -25 19 0 15 8 21 33 24
28 3 26 4 -10 5 l-43 2 0 -65z"/>
<path d="M1217 2163 c19 -4 23 -12 26 -66 l3 -62 2 62 c2 55 4 62 25 66 12 2
0 4 -28 4 -27 0 -40 -2 -28 -4z"/>
<path d="M1093 1796 c-63 -20 -99 -51 -127 -108 -96 -192 106 -380 303 -282
29 15 55 33 58 41 3 8 -7 27 -22 43 l-28 29 -27 -20 c-40 -30 -101 -35 -139
-13 -98 58 -67 216 45 231 31 4 47 -1 78 -22 l39 -27 30 30 c37 37 32 53 -26
81 -57 28 -130 35 -184 17z"/>
<path d="M1390 1590 l0 -210 50 0 50 0 0 60 0 60 45 0 c44 0 45 -1 77 -60 l33
-60 58 0 c31 0 57 2 57 5 0 2 -18 32 -40 66 -45 69 -46 74 -25 83 48 18 72
135 40 196 -28 54 -78 70 -220 70 l-125 0 0 -210z m238 114 c15 -10 22 -25 22
-49 0 -55 -38 -80 -116 -73 l-39 3 -3 68 -3 67 58 0 c37 0 67 -6 81 -16z"/>
<path d="M1830 1590 l0 -210 170 0 170 0 0 40 0 39 -117 3 -118 3 -3 43 -3 42
105 0 106 0 0 40 0 39 -102 3 -103 3 -3 43 -3 42 115 0 116 0 0 40 0 40 -165
0 -165 0 0 -210z"/>
<path d="M2360 1773 c-11 -26 -124 -287 -155 -360 l-14 -33 55 0 c54 0 54 0
70 40 l16 40 93 0 92 0 16 -40 15 -40 57 0 c31 0 55 4 53 8 -1 5 -41 99 -88
210 l-85 202 -56 0 c-51 0 -57 -2 -69 -27z m116 -208 c6 -25 5 -25 -54 -25
l-61 0 32 77 31 77 23 -52 c12 -29 25 -63 29 -77z"/>
<path d="M2670 1760 l0 -40 60 0 60 0 0 -170 0 -170 55 0 55 0 0 170 0 170 65
0 65 0 0 40 0 40 -180 0 -180 0 0 -40z"/>
<path d="M3070 1590 l0 -210 55 0 55 0 0 210 0 210 -55 0 -55 0 0 -210z"/>
<path d="M3230 1793 c0 -5 35 -98 78 -208 l78 -200 57 -3 c31 -2 57 -1 57 1 0
2 36 95 80 207 44 112 80 205 80 207 0 1 -24 3 -54 3 l-54 0 -42 -122 c-70
-209 -58 -206 -119 -30 l-53 152 -54 0 c-30 0 -54 -3 -54 -7z"/>
<path d="M3710 1590 l0 -210 170 0 170 0 0 40 0 39 -117 3 -118 3 -3 43 -3 42
105 0 106 0 0 40 0 39 -102 3 -103 3 -3 43 -3 42 115 0 116 0 0 40 0 40 -165
0 -165 0 0 -210z"/>
<path d="M1130 1200 c0 -5 14 -10 30 -10 l30 0 0 -80 c0 -47 4 -80 10 -80 6 0
10 33 10 80 l0 80 30 0 c17 0 30 5 30 10 0 6 -30 10 -70 10 -40 0 -70 -4 -70
-10z"/>
<path d="M1400 1120 l0 -90 65 0 c37 0 65 4 65 10 0 6 -22 10 -50 10 -49 0
-50 1 -50 30 0 29 2 30 45 30 25 0 45 5 45 10 0 6 -20 10 -45 10 -43 0 -45 1
-45 30 0 29 1 30 50 30 28 0 50 5 50 10 0 6 -28 10 -65 10 l-65 0 0 -90z"/>
<path d="M1689 1181 c-57 -58 -21 -146 60 -146 22 0 46 6 53 13 17 17 4 24
-23 12 -33 -15 -76 2 -89 35 -22 57 33 110 91 88 36 -14 48 0 13 16 -41 18
-74 13 -105 -18z"/>
<path d="M1960 1120 c0 -53 4 -90 10 -90 6 0 10 18 10 40 l0 40 55 0 55 0 0
-40 c0 -22 5 -40 10 -40 6 0 10 37 10 90 0 53 -4 90 -10 90 -5 0 -10 -18 -10
-40 l0 -40 -55 0 -55 0 0 40 c0 22 -4 40 -10 40 -6 0 -10 -37 -10 -90z"/>
<path d="M2270 1120 c0 -105 18 -123 22 -22 l3 67 50 -67 c28 -37 56 -67 63
-68 9 0 12 24 12 90 0 53 -4 90 -10 90 -6 0 -10 -28 -10 -65 0 -36 -3 -65 -7
-65 -5 0 -28 29 -53 65 -25 36 -51 65 -57 65 -10 0 -13 -25 -13 -90z"/>
<path d="M2589 1181 c-48 -49 -34 -114 30 -141 46 -18 99 2 117 46 39 92 -75
166 -147 95z m111 -11 c29 -29 26 -74 -7 -100 -47 -37 -106 -8 -106 51 0 60
71 91 113 49z"/>
<path d="M2890 1120 l0 -90 50 0 c28 0 50 5 50 10 0 6 -18 10 -40 10 l-40 0 0
80 c0 47 -4 80 -10 80 -6 0 -10 -37 -10 -90z"/>
<path d="M3165 1198 c-32 -17 -45 -39 -45 -78 0 -79 104 -117 156 -57 33 39
31 81 -5 118 -31 31 -70 37 -106 17z m90 -33 c14 -13 25 -33 25 -45 0 -26 -43
-70 -68 -70 -11 0 -31 9 -46 21 -33 26 -35 70 -4 99 29 27 64 25 93 -5z"/>
<path d="M3461 1184 c-37 -31 -42 -78 -11 -117 25 -31 62 -41 106 -27 30 10
34 16 34 46 0 19 -4 34 -10 34 -5 0 -10 -13 -10 -29 0 -25 -5 -31 -30 -36 -38
-8 -77 15 -86 51 -14 54 54 102 106 74 16 -8 20 -8 20 3 0 15 -29 27 -67 27
-12 0 -35 -12 -52 -26z"/>
<path d="M3755 1147 c19 -35 35 -76 35 -90 0 -15 5 -27 10 -27 6 0 10 15 10
33 0 18 14 59 31 90 36 68 22 77 -17 11 -30 -50 -30 -50 -66 15 -9 17 -22 31
-28 31 -6 0 5 -29 25 -63z"/>
</g>
</svg>
